<svg xmlns="http://www.w3.org/2000/svg" width="45.752" height="48.483" viewBox="0 0 45.752 48.483">
  <g id="icon_layout" transform="translate(1 1)">
    <path id="Path_19" data-name="Path 19" d="M9.549,36.59V50.76a2.841,2.841,0,0,0,3.025,3.025,2.759,2.759,0,0,0,3.034-3.025V48.7H46.874v2.06a3.025,3.025,0,0,1-3.025,3.025H12.584" transform="translate(-6.524 -7.321)" fill="none" stroke="#888" stroke-miterlimit="10" stroke-width="2"/>
    <path id="Path_20" data-name="Path 20" d="M41.844,20.907V5.762a1,1,0,0,0-1.011-1H10.561a1,1,0,0,0-1.011,1V15.04" transform="translate(-6.525 -4.76)" fill="none" stroke="#888" stroke-miterlimit="10" stroke-width="2"/>
    <line id="Line_44" data-name="Line 44" y1="9.085" transform="translate(35.32 32.294)" fill="none" stroke="#888" stroke-miterlimit="10" stroke-width="2"/>
    <line id="Line_45" data-name="Line 45" x2="28.257" transform="translate(5.048 6.051)" fill="none" stroke="#888" stroke-linejoin="round" stroke-width="2"/>
    <line id="Line_46" data-name="Line 46" x2="2.023" transform="translate(6.051 3.025)" fill="none" stroke="#888" stroke-linejoin="round" stroke-width="2"/>
    <line id="Line_47" data-name="Line 47" x2="2.014" transform="translate(9.085 3.025)" fill="none" stroke="#888" stroke-linejoin="round" stroke-width="2"/>
    <rect id="Rectangle_95" data-name="Rectangle 95" width="22.207" height="15.136" transform="translate(0 12.11)" fill="none" stroke="#888" stroke-linejoin="round" stroke-width="2"/>
    <g id="Group_65" data-name="Group 65" transform="translate(4.037 15.136)">
      <path id="Path_21" data-name="Path 21" d="M47.679,22.231,32.636,37.32,31.1,42.838l5.517-1.545L51.7,26.24a1.269,1.269,0,0,0-.294-1.71l-2-2a1.251,1.251,0,0,0-1.72-.294Z" transform="translate(-12.295 -21.284)" fill="none" stroke="#0000c8" stroke-linejoin="round" stroke-width="2"/>
      <line id="Line_48" data-name="Line 48" x2="4.037" y2="4.037" transform="translate(32.294 4.037)" fill="none" stroke="#0000c8" stroke-miterlimit="10" stroke-width="2"/>
      <path id="Path_22" data-name="Path 22" d="M13.675,28.644,10.65,25.922,13.675,23.2" transform="translate(-10.65 -21.379)" fill="none" stroke="#0000c8" stroke-linecap="round" stroke-linejoin="round" stroke-width="2"/>
      <path id="Path_23" data-name="Path 23" d="M22.72,28.644l3.025-2.722L22.72,23.2" transform="translate(-11.621 -21.379)" fill="none" stroke="#0000c8" stroke-linecap="round" stroke-linejoin="round" stroke-width="2"/>
      <line id="Line_49" data-name="Line 49" x1="4.037" y2="9.085" transform="translate(5.048)" fill="none" stroke="#0000c8" stroke-linecap="round" stroke-linejoin="round" stroke-width="2"/>
    </g>
    <line id="Line_50" data-name="Line 50" x2="7.062" transform="translate(25.232 14.124)" fill="none" stroke="#888" stroke-miterlimit="10" stroke-width="2"/>
    <line id="Line_51" data-name="Line 51" x2="7.062" transform="translate(25.232 17.149)" fill="none" stroke="#888" stroke-miterlimit="10" stroke-width="2"/>
    <line id="Line_52" data-name="Line 52" x2="5.048" transform="translate(15.136 31.283)" fill="none" stroke="#888" stroke-miterlimit="10" stroke-width="2"/>
    <line id="Line_53" data-name="Line 53" x2="3.025" transform="translate(15.136 34.308)" fill="none" stroke="#888" stroke-miterlimit="10" stroke-width="2"/>
    <line id="Line_54" data-name="Line 54" x2="4.037" transform="translate(25.232 20.184)" fill="none" stroke="#888" stroke-miterlimit="10" stroke-width="2"/>
    <rect id="Rectangle_96" data-name="Rectangle 96" width="5.048" height="5.048" transform="translate(7.062 31.283)" fill="none" stroke="#888" stroke-miterlimit="10" stroke-width="2"/>
  </g>
</svg>
