<?xml version="1.0" encoding="UTF-8"?><svg id="a" xmlns="http://www.w3.org/2000/svg" viewBox="0 0 159.97 133.14"><defs><style>.b{fill:#fff;}</style></defs><path class="b" d="M121.65,129.11c-1.21-.82-1.99-1.51-2.9-1.89-.62-.26-1.42-.12-2.14-.11-.1,0-.16,.36-.3,.43-.14,.07-.43,.07-.54-.02-.93-.79-2.79,.15-3.12-1.19-.33-1.32-1.6-2.43-1.04-3.97,.09-.25,.1-.53,.14-.78-1.07-.52-2.09-1.1-3.31-.49-.06,.03-.37-.22-.39-.37-.04-.27-.03-.6,.08-.85,.08-.18,.36-.27,.11-.36-.15-.88-.31-1.75-.45-2.63-.2-1.27-.4-2.55-.51-3.29-.88-.65-1.74-.96-1.92-1.5-.32-.94,.89-2.35,1.96-2.4l-.67-2.9c.32-.18,.75-.42,1.18-.67q.16-3.02-2-3.39c-.68,1.6-3.37,2.57-1.37,4.87-.73,.61-1.32,1.13-1.93,1.6-.86,.66-.99,1.43-.32,2.53l-1.77,.3c0,.33,.17,.93-.05,1.33-.22,.43-.79,.7-1.23,1-.59,.39-1.21,.75-1.66,1.03l.3,2.48-1.73,.15c-.63,.56-1.41,1.16-2.09,1.88-.61,.64-1.08,1.4-1.63,2.09-.22,.27-.62,.73-.76,.67-1.49-.63-1.76,.88-2.44,1.47-.64,.55-1,1.47-1.36,2.28-.43,.96-.89,1.65-2.05,2.04-.98,.33-1.69,1.42-2.54,2.14-.36,.3-.84,.45-1.16,.77-.31,.32-.49,.78-.73,1.17-.14,.22-.35,.65-.41,.63-.88-.29-1.75-.62-2.6-.98-.2-.09-.38-.53-.48-.5-1.22,.36-2.08-.34-3.07-.86-1.07-.56-1.13-.44-2.48,.86-.52-.67-1.59-.79-1.41-2.17,.06-.44-1.39-1.07-2.27-1.7,.55-1.45-.63-2.14-1.67-3.1-.76-.7-1.17-1.85-1.53-2.88-.37-1.05-.5-2.19-.69-3.08-.67-.15-1.63-.15-1.71-.42-.22-.73-.08-1.58-.08-2.57-.47-.23-1.55-.25-.57-1.76,.61-.94,.34-2.49,.33-3.76,0-.25-.64-.47-.93-.76-.27-.27-.47-.62-.71-.94,1.21-.76-.39-2.59,1.35-3.33,.55-.24,.63-1.59,.9-2.37-.62,0-1.7,.14-1.74-.02-.21-.75-.39-1.67-.12-2.35,.44-1.11-.22-2.48,.88-3.39,.04-.03-.23-.35-.25-.54-.06-.64-.84-1.21,.03-2,.27-.25-.11-1.5-.48-2.12-.55-.91-1.1-1.53-.12-2.63,.47-.53,.19-1.73,.24-2.65l-1.08-.22,1.08-1.43c.16-.89,.28-1.51,.39-2.13,.17-.95,1.42-1.62,.71-2.8-.06-.11-.04-.28-.03-.42,.08-1.11,.38-2.26,.21-3.33-.22-1.36,.58-2.23,.95-3.33,.21-.61-.24-1.46-.45-2.19-.07-.24-.32-.44-.57-.75l2.01-1.25-.74-1.94,1.17-.99c-.39-.72,.38-1.71-.54-2.42-.1-.08,.3-.81,.56-1.49l-1.7-1.05-.44,.2,.62,2.24-1.96,1.01c.31,.48,.84,1.13,.77,1.21-.42,.45-.97,.99-1.52,1.07-.9,.12-1.87-.17-2.32,.97-.32,.81-.59,1.64-1.02,2.38-.5,.85-1.09,1.67-1.78,2.38-.55,.57-1.3,.95-1.93,1.41,1.24,.88,1.23,1.01-.12,1.72-.84,.44-1.3,1.06-.92,2.05,.48,1.26-.26,1.66-1.27,1.51-1.61-.24-1.99,.46-1.68,1.88-1.97,.21-2.34,1.97-2.75,3.24-.56,1.78-1.57,3.05-2.85,4.27,.54,1.02,.22,1.52-1,1.57-.67,.03-1.37,.13-2,.34-.27,.09-.62,.61-.57,.85,.43,1.9-1.15,2.4-2.23,3.07-1.34,.83-1.98,1.87-1.93,3.46-.9-.06-1.5,.21-1.38,1.29,.02,.22-.24,.66-.4,.67-1.53,.14-1.73,1.54-2.46,2.45-.44,.55-1.36,.87-1.52,1.44-.48,1.73-2.09,2.03-3.07,2.8,0,.79,.07,1.47-.03,2.12-.04,.28-.42,.7-.67,.72-.99,.09-1.32,.97-1.95,1.39-1.64,1.1-2.4,3.58-5.03,3.25l-.2,1.89c-.53,.13-1.09,.2-1.6,.41-.66,.26-1.39,.52-1.9,.98-.63,.58-1.08,1.37-1.43,1.84-1.3,.98-2.38,1.94-3.61,2.63-.45,.25-1.26-.12-2.3-.27-.95,.56-2.35,.6-3.97-.82-.59-.52-.94-1.67-2.26-1.06-.31,.14-1.31-.7-1.68-1.29-.56-.9-.85-1.97-1.28-3.03l5.03-2.36c1.08,1.16,1.88,.25,2.95-.8,.65-.64,1.91-.65,2.97-.97l-.23-1.03,3.78-1.92-.06-1.1c.55,.08,1,.13,1.44,.2,1.01,.15,1.74,.11,2.08-1.21,.19-.72,1.06-1.54,1.8-1.8,2.21-.8,3.81-2.33,5.35-3.97,1.48-1.58,3-3.12,4.39-4.78,.38-.45,.37-1.23,.54-1.87l1.37-.2c-.05-1.76,1.63-2.05,2.39-3.08,.36-.48,.64-1.03,1.05-1.46,.38-.4,.89-.68,1.43-.85,.89-1.04,1.37-2.26,.48-3.16,1.05-1.16,1.95-2.21,2.91-3.18,.27-.28,.76-.34,1.12-.54,.34-.2,.67-.44,.97-.7,.73-.64,1.45-1.31,2.23-2.02-.19-.27-.6-.81,.6-1.04,.41-.08,.74-.59,1.09-.93,.37-.36,.75-.71,1.07-1.11,.17-.21,.32-.53,.3-.79-.03-.49-.21-.97-.27-1.45-.09-.88-.08-1.66,1.22-1.43,.86,.15,1.61,.03,1.55-1.16,0-.16,.26-.48,.42-.49,1.55-.15,1.94-1.54,2.65-2.54,.2-.28-.07-.9-.15-1.53,.64-.35,1.4-.77,2.18-1.17,.75-.38,1.11-.87,.92-1.78-.16-.74-.2-1.54-.13-2.29,.03-.29,.45-.71,.76-.79,1.44-.34,1.69-.69,1.24-2.21,2.35,.14,2.52-1.69,3.04-3.28,.19-.58,.5-1.2,.92-1.62,.9-.88,.66-1.63-.38-2.6l2.5-.46c-.94-1.7-.09-3.51,1.88-4.26,.43-.16,.9-.6,1.05-1.02,.47-1.32,1.66-2.5,.94-4.1-.04-.09,.19-.45,.26-.44,1.58,.21,.78-.56,.54-1.2-.48-1.29,.73-1.52,1.36-1.49,1.16,.06,.79-.47,.67-1.05-.06-.27-.15-.69-.01-.83,.78-.77,1.17-1.68,1.19-2.77,0-.09,.04-.23,.1-.25,2.05-.91,.92-2.64,1.11-4.05,.09-.67,.65-1.28,1-1.92l.42,.13-.55-1.37c.96-.41,1.22-1.19,1.5-2.26,.23-.88,.49-1.81,.72-2.72,.06-.22-.09-.5-.02-.72,.19-.62,.3-1.33,.69-1.81,.47-.59,1.19-.99,1.82-1.48-.62-.54-2.79-.17-.91-1.82,.24-.21-.15-1.12-.21-1.46,.73-.85,1.47-1.58,2.06-2.41,.45-.63,.76-1.31,.33-2.22-.22-.46,.17-1.21,.27-1.83,.11-.65,.16-1.32,.35-1.94,.1-.35,.37-.79,.67-.92,1.04-.44,1.26-1.1,.56-2.33l7.34-1.65-.64,2.86c.12,.05,.42,.09,.62,.25,.23,.18,.54,.47,.54,.71,0,.24-.32,.58-.57,.67-.89,.32-1.56,.42-.69,1.69,.39,.57,.1,2.28-.46,2.72-1.81,1.41-1.9,3.11-1.27,4.93,.51,1.46-.1,1.35-1.17,1.08-.13,1.14-.13,2.31-.44,3.39-.15,.5-.91,.82-1.45,1.27-.2,.75-.46,1.69-.72,2.63-.07,.27-.31,.64-.21,.79,1.48,2.25-1.34,2.81-1.63,4.31-.11,.58,.38,1.27,.65,2.07-.1,.07-.6,.23-.74,.55-.22,.5-.45,1.26-.22,1.63,.5,.8,.32,1.17-.45,1.46-.82,.31-.81,.9-.42,1.47,.87,1.29-.06,1.37-.79,1.54-.14,.54-.34,1.05-.4,1.58-.2,1.64-1.01,3.06-1.55,4.56-.39,1.09-.59,2.37-1,3.53-.02,.07-.08,.17-.05,.2,1.51,1.46-.45,1.48-.85,2.05l1.06,1.85c-.97,.47-1.16,.97-.42,1.84,.86,1-.17,1.54-.81,2.07-.3,.25-.74,.33-1.21,.53,.32,.29,.62,.5,.84,.77,.46,.55,1.64,1.13-.04,1.71-.13,.05-.06,.95,.07,1.42,.1,.35,.43,.64,.72,1.03-.61,.59-2.1,.41-1.57,1.83,.05,.13-.05,.43-.02,.44,1.37,.47,.48,.79-.01,1.28-.35,.35-.48,.91-.46,1.4-.07,.49-.06,1.01-.23,1.46-.59,1.54-.11,3.3-1.16,4.8-.3,.43,.3,1.47,.44,2.25,.08,.47,.05,.96,.07,1.43,.04,.79,.08,1.57,.12,2.36l.46,.06-2,2.3c.6,1.82,1.67,3.81-.16,5.93,1.71-.07,1.58,.71,1.18,1.75-.22,.57-.21,1.22-.31,1.84-.06,.35-.05,.75-.21,1.05-.46,.9-.99,1.76-1.5,2.63l-.3-.21c.26,.96,.63,1.91,.76,2.89,.13,1.03,.03,2.09,.03,2.98,.31,.22,.83,.44,.81,.6-.16,1.35-.42,2.7-.65,4.06,1.09,.28,1.71,2.37,.93,3.88-.26,.51-.2,1.18-.36,1.76-.18,.65-.45,1.28-.7,1.97l1.68,.29-.64,2.11,1.98,.11-.11,1.78h-.03v2.01c1.1,.61,.93,1.36-.67,2.35,.19,.21,.36,.56,.57,.59,1.33,.21,1.51,1.13,1.75,2.25,.12,.56,.98,1.02,1.59,1.41,1.3,.83,1.32,.8,2.82-.03,.68,.73,1.1,1.1,1.75-.24,.51-1.06,1.65-1.85,2.6-2.64,.8-.67,1.74-1.18,2.63-1.77l-1.09-1.32c.26-.13,.61-.29,.96-.47,.11-.06,.28-.13,.29-.22,.09-.72,.12-1.48,1.2-1.24,.16-.76,1.59-1.2,.54-2.27-.29-.29-.45-.71-.87-1.39l2.44-1.04c-.38-.67-.09-1.29,.97-1.55,.3-.08,.5-.51,.8-.63,.58-.23,1.21-.36,1.87-.55l.73-1.65-.81-1.92c.9-.33,1.79-.65,2.63-.96-.09-.36-.48-1.04-.3-1.5,.13-.33,1.12-.24,1.54-.57,.45-.35,.69-.98,.99-1.5,.12-.22,.06-.54,.2-.73,.39-.57,.84-1.11,1.26-1.66l-.28-.29,.72-.12c.59-1.01,1.33-1.73,1.41-2.52,.16-1.49,1.53-.62,2.08-1.55l-.98-1.03c.45-.95,.46-2.46,1.94-2.2,1.46-2.25,2.89-4.44,4.37-6.72l-1.11-1.22c1.38-1.75,2.76-3.51,4.22-5.37-.34-.61-1.22-1.53,.45-1.98-.02-1.21,.85-1.49,1.77-1.87,.78-.32,1.39-3.58,1.17-4.44-.11-.45,.14-1.13,.46-1.51,.25-.3,.85-.3,1.44-.47,.16-1.1,1.16-.98,2.64-.58l-1.55-2.52c.81-.15,1.52-.35,2.23-.39,1.34-.08,2.53-.39,3.38-1.53,.44-.59,.91-.94,1.47-.02,.23,.38,.71,.68,1.14,.86,2.22,.9,1.4,2.84,1.33,4.33-.05,1.06-.87,2.08-1.37,3.11-.07,.15-.31,.25-.34,.4-.38,1.79-.37,1.79-1.46,2.37,.44,.77,.14,2.26-.54,2.64-1,.55-1.55,1.61-1.74,2.61-.14,.75-.48,1.6-1.01,2.09-.75,.7-1.04,1.34-.53,2.42l-1.82,.68-.57,.59c.34,.05,.71,.04,1.01,.17,.12,.05,.2,.54,.11,.64-.31,.34-.67,.71-1.08,.86-.43,.15-1.11-.12-.75,.77,.05,.11,.02,.37,0,.37-1.46,.15-1.02,1.56-1.5,2.28,.39,.06,.95,0,1.16,.24,.18,.21,.07,.82-.1,1.15-.48,.92-1.06,1.8-1.62,2.72,.18,.17,.9,.54,.93,.98,.06,.62-.48,1.27-.58,1.94-.08,.54-.1,1.38,.22,1.63,1.14,.91,1.2,.93,0,1.89,.25,.6,.57,1.17,.69,1.79,.07,.36-.07,.86-.29,1.17-.43,.62-.99,1.17-1.39,1.63,1.68,1.97-.28,3.35-.34,5.02,.34,.31,.74,.87,1.28,1.12,.92,.43,.77,1.12,.43,1.67-.63,1.02,.22,1.56,.68,2.04,.72,.73,.89,.93,.47,1.79-.22,.45-.39,.95-.44,1.44-.02,.17,.41,.56,.62,.55,1.56-.08,1.56-.11,1.64,1.63,1.26,.46,1.46,1.06,.73,2.26,.87,.42,1.74,.85,2.83,1.38,.28-.61,.61-1.29,.9-1.97,.39-.91,1.52-1.17,2.42-.53,.14,.1,.3,.17,.46,.24,.04,.02,.09-.01,.22-.03l-.26-2c1.36-.38,2.75-.7,4.08-1.16,.55-.19,1.06-.63,1.49-1.06,.73-.73,1.39-1.54,2.04-2.34,.24-.3,.33-.74,.61-.99,.55-.49,1.18-.89,1.9-1.42l-.17-.57c2-.59,3.12-2.06,3.82-3.9,.13-.36-.02-.81,.03-1.21,.05-.38,.13-.77,.3-1.11,.38-.75,.9-1.45,1.22-2.23,.1-.25-.16-.77-.4-1.01-.89-.87-.83-1.61,.15-2.34,.89-.67,1.57-1.74,2.95-1.39,.14,.04,.41-.22,.55-.4,1.06-1.29,2.82-1.01,4.11-1.78,.03-.02,.58,.76,.82,1.2,.17,.32,.25,.7,.32,1.07,.07,.34,.23,.79,.08,1.02-1.03,1.65-1,3.38-.19,5,.56,1.13-.16,1.24-.8,1.39-1.25,.3-1.58,1.16-1.65,2.29-.03,.4-.14,1.01-.4,1.14-1.01,.5-1.39,1.26-1.47,2.34-.04,.52-.45,1.02-.73,1.59,1.39,.51,.79,1.66,.25,2.05-1.09,.78-1.91,1.65-2.47,2.85-.07,.16-.51,.15-.65,.18l1.03,1.23c-.39,.25-.97,.42-1.13,.78-.44,.98-2.25,1.1-1.53,2.9,.44,1.12-.5,1.83-1.76,1.71-1.15-.1-2.87,1.29-2.62,2.39,.24,1.05-.54,.95-.86,.95-.95,.01-1.89-.18-2.8-.29l-.38,3.2c-1.3,.21-2.67,.46-4.05,.67-1.05,.16-2.2,.84-2.97-.68-.13-.26-1.22-.21-1.78-.03-1.65,.53-1.73,.54-1.98-.44Z"/><path class="b" d="M157.66,75.78l2.31,1.98c-1.89,1.06-3.69,2.07-5.51,3.05-.18,.1-.54,.03-.74-.09-1.03-.62-1.86-2.58-1.61-3.82,.19-.92,.19-2.05,.73-2.68,.76-.89,1.92-1.5,3-2.04,.25-.12,1.07,.44,1.32,.87,1,1.78,1.02,2.1,.5,2.73Z"/></svg>